<svg width="143" height="24" viewBox="0 0 143 24" fill="none" xmlns="http://www.w3.org/2000/svg">
<path d="M13.4212 14.9955L18.2382 3.35938C22.7599 3.35938 25.8255 8.16947 24.0443 12.4317L19.2104 23.9992C14.6887 23.9992 11.6401 19.2578 13.4212 14.9955Z" fill="#175CFF" fill-opacity="0.65"/>
<path d="M30.6906 14.9964L32.2314 11.3102C33.3603 8.6089 35.9512 6.85742 38.817 6.85742H42.561C43.0753 6.85742 43.4212 7.39672 43.2186 7.88152L36.4794 24.0001C31.9577 24.0001 28.9095 19.2586 30.6906 14.9964Z" fill="#175CFF" fill-opacity="0.65"/>
<path d="M19.2117 23.9997L11.0432 4.45282C9.91434 1.75148 7.32433 0 4.45859 0H0.717156C0.202853 0 -0.143898 0.539298 0.0586942 1.0241L7.7992 19.5469C8.92807 22.2482 11.5181 23.9997 14.3838 23.9997H19.2117Z" fill="#175CFF"/>
<path d="M36.4805 23.9992L29.7461 7.88086C28.6173 5.17953 26.0263 3.35938 23.1606 3.35938H18.2406L24.9763 19.5464C26.1052 22.2477 28.6952 23.9992 31.5609 23.9992H36.4805Z" fill="#175CFF"/>
<path d="M76.7078 7.49096C76.5792 7.49096 76.4668 7.57787 76.4345 7.70236L73.7668 17.9772L71.2482 7.70607C71.2172 7.57978 71.104 7.49096 70.974 7.49096H67.9078C67.7778 7.49096 67.6645 7.57977 67.6336 7.70607L65.115 17.9772L62.4473 7.70236C62.415 7.57787 62.3026 7.49096 62.174 7.49096H58.9974C58.8062 7.49096 58.6703 7.67695 58.7284 7.85909L63.4187 22.5691C63.4561 22.6862 63.5649 22.7657 63.6878 22.7657H66.5921C66.72 22.7657 66.832 22.6797 66.8649 22.556L69.4409 12.8856L72.0169 22.556C72.0498 22.6797 72.1618 22.7657 72.2897 22.7657H75.194C75.3169 22.7657 75.4257 22.6862 75.463 22.5691L80.1534 7.85909C80.2114 7.67695 80.0755 7.49096 79.8844 7.49096H76.7078Z" fill="#0A083B"/>
<path d="M82.3805 3.09644C82.3805 4.46026 83.409 5.521 84.8006 5.521C86.1921 5.521 87.2207 4.46026 87.2207 3.09644C87.2207 1.73262 86.1921 0.671875 84.8006 0.671875C83.409 0.671875 82.3805 1.73262 82.3805 3.09644ZM83.2074 7.49096C83.0514 7.49096 82.925 7.61737 82.925 7.77331V22.4834C82.925 22.6393 83.0514 22.7657 83.2074 22.7657H86.3938C86.5497 22.7657 86.6762 22.6393 86.6762 22.4834V7.77331C86.6762 7.61737 86.5497 7.49096 86.3938 7.49096H83.2074Z" fill="#0A083B"/>
<path d="M103.244 22.7657C103.4 22.7657 103.526 22.6393 103.526 22.4834V16.8255C103.526 12.5219 105.008 10.4611 106.823 10.4611C107.943 10.4611 108.699 11.0369 108.699 12.5825V22.4834C108.699 22.6393 108.825 22.7657 108.981 22.7657H112.168C112.324 22.7657 112.45 22.6393 112.45 22.4834V11.9461C112.45 9.00631 110.756 7.2485 107.912 7.2485C106.037 7.2485 104.343 8.43048 103.254 10.4004C102.588 8.18802 100.864 7.2485 98.9883 7.2485C97.022 7.2485 95.7212 8.24863 94.6019 9.94583V7.77331C94.6019 7.61737 94.4755 7.49096 94.3196 7.49096H91.1332C90.9772 7.49096 90.8508 7.61737 90.8508 7.77331V22.4834C90.8508 22.6393 90.9772 22.7657 91.1332 22.7657H94.3196C94.4755 22.7657 94.6019 22.6393 94.6019 22.4834V17.1589C94.6019 12.6129 96.054 10.4611 97.8993 10.4611C99.0186 10.4611 99.7749 11.0369 99.7749 12.5825V22.4834C99.7749 22.6393 99.9013 22.7657 100.057 22.7657H103.244Z" fill="#0A083B"/>
<path d="M130.276 14.795C130.276 11.4612 128.25 7.2485 123.167 7.2485C117.934 7.2485 115.847 11.5218 115.847 15.1283C115.847 18.7349 117.934 23.0082 123.167 23.0082C126.732 23.0082 128.773 21.3681 129.971 18.8254C130.04 18.6786 129.967 18.5055 129.814 18.4491L127.294 17.5146C127.164 17.4667 127.02 17.5197 126.948 17.6372C126.067 19.0762 125.027 19.7956 123.379 19.7956C121.05 19.7956 119.87 18.0378 119.779 16.3406H130.276V14.795ZM123.167 10.4611C125.164 10.4611 126.102 11.8552 126.435 13.3705H119.87C120.142 11.9158 121.262 10.4611 123.167 10.4611Z" fill="#0A083B"/>
<path d="M141.969 19.7657C141.919 19.5936 141.724 19.5122 141.559 19.5807C141.176 19.7389 140.827 19.7956 140.421 19.7956C139.15 19.7956 138.424 19.1895 138.424 17.3104V10.7035H142.165C142.321 10.7035 142.447 10.5771 142.447 10.4212V7.77331C142.447 7.61737 142.321 7.49096 142.165 7.49096H138.424V1.82C138.424 1.59776 138.179 1.46264 137.991 1.58113L134.673 3.67227V7.49096H132.596C132.44 7.49096 132.313 7.61737 132.313 7.77331V10.4212C132.313 10.5771 132.44 10.7035 132.596 10.7035H134.673V17.3711C134.673 21.1594 136.821 23.0082 140.269 23.0082C141.015 23.0082 141.76 22.882 142.529 22.5604C142.657 22.5067 142.721 22.364 142.683 22.2302L141.969 19.7657Z" fill="#0A083B"/>
</svg>
