<svg width="268" height="201" viewBox="0 0 268 201" fill="none" xmlns="http://www.w3.org/2000/svg">
<path d="M102 89.2312C101.971 100.67 104.626 111.954 109.75 122.165C115.826 134.4 125.166 144.691 136.725 151.885C148.284 159.079 161.604 162.893 175.195 162.898C186.56 162.928 197.772 160.255 207.917 155.098L257 171.564L240.639 122.165C245.763 111.954 248.419 100.67 248.389 89.2312C248.384 75.5532 244.595 62.1467 237.447 50.5134C230.298 38.8802 220.073 29.4796 207.917 23.3647C197.772 18.2074 186.56 15.5349 175.195 15.5647H170.889C152.941 16.5613 135.988 24.186 123.277 36.9788C110.566 49.7716 102.99 66.8336 102 84.8979V89.2312Z" stroke="#3DE7C8" stroke-width="22" stroke-linecap="round" stroke-linejoin="round"/>
<path d="M84.7576 189.5L32.6062 137.348C22.2926 127.041 15.2674 113.907 12.4192 99.6072C9.57112 85.3071 11.0281 70.4835 16.6057 57.0116C22.1834 43.5396 31.6313 32.0245 43.7542 23.9227C55.8772 15.821 70.1306 11.4966 84.7116 11.4966C99.2925 11.4966 113.546 15.821 125.669 23.9227C137.792 32.0245 147.24 43.5396 152.817 57.0116C158.395 70.4835 159.852 85.3071 157.004 99.6072C154.156 113.907 147.131 127.041 136.817 137.348L84.7576 189.5Z" stroke="#3475EF" stroke-width="22" stroke-linecap="round" stroke-linejoin="round"/>
</svg>
